<?xml version="1.0" encoding="UTF-8"?>
<svg version="1.1" viewBox="0 0 400 400" xmlns="http://www.w3.org/2000/svg">
<g fill-rule="evenodd">
<path d="m189.6 61.233c-31.578 1.829-53.323 15.655-60.341 38.367-2.417 7.823-2.459 8.422-2.459 35.156v24.507l-1.922 2.269c-1.934 2.282-3.171 4.509-4.149 7.468-0.781 2.363-0.761 34.442 0.023 37 1.017 3.318 4.579 9.19 5.582 9.203 1.196 0.016 3.196 2.955 3.854 5.663 2.062 8.485 10.941 29.942 12.69 30.667 0.177 0.074 0.322 0.311 0.322 0.528s0.54 1.18 1.2 2.139 1.2 1.861 1.2 2.004c0 0.369 4.694 7.25 6.386 9.361l1.414 1.766-0.026 14.634c-0.025 14.27-0.049 14.705-0.966 17.435-2.213 6.585-6.207 11.395-12.321 14.837-3.448 1.941-11.665 6.398-13.887 7.533-1.32 0.674-2.49 1.316-2.6 1.428-0.11 0.111-0.92 0.58-1.8 1.041-0.88 0.462-2.41 1.296-3.4 1.854-0.99 0.557-2.97 1.638-4.4 2.401s-3.41 1.84-4.4 2.393c-0.99 0.554-3.06 1.681-4.6 2.506s-3.745 2.018-4.9 2.653-3.045 1.673-4.2 2.307-3.27 1.777-4.7 2.54-3.23 1.743-4 2.179-2.84 1.569-4.6 2.519c-8.837 4.769-13.808 9.609-9.869 9.609 0.258 0 0.469 0.168 0.469 0.373s0.36 0.487 0.8 0.627 0.8 0.49 0.8 0.778c0 0.289 0.527 0.743 1.172 1.01 0.644 0.267 1.497 0.919 1.895 1.449 0.397 0.53 0.923 0.963 1.169 0.963 0.245 0 1.01 0.54 1.701 1.2s1.411 1.2 1.6 1.2 0.909 0.54 1.6 1.2 1.527 1.2 1.859 1.2 0.604 0.18 0.604 0.4 0.281 0.4 0.624 0.4 0.512 0.18 0.376 0.4 0.123 0.4 0.576 0.4 0.824 0.18 0.824 0.4 0.27 0.4 0.6 0.4 0.6 0.18 0.6 0.4 0.27 0.4 0.6 0.4 0.6 0.164 0.6 0.364c0 0.201 0.892 0.809 1.982 1.352s1.9 1.069 1.8 1.168c-0.099 0.1 0.314 0.43 0.919 0.734 0.604 0.304 1.594 0.887 2.199 1.295s1.1 0.626 1.1 0.485 0.474 0.117 1.054 0.573 1.39 0.829 1.8 0.829 0.746 0.18 0.746 0.4 0.32 0.4 0.712 0.4c0.391 0 0.971 0.36 1.288 0.8s0.897 0.8 1.288 0.8c0.392 0 0.712 0.18 0.712 0.4s0.36 0.4 0.8 0.4 0.8 0.18 0.8 0.4 0.234 0.4 0.52 0.4c0.736 0 2.673 0.941 2.677 1.3 2e-3 0.165 0.192 0.3 0.422 0.3 0.231 0 1.165 0.36 2.075 0.8 0.911 0.44 1.892 0.8 2.181 0.8s0.525 0.18 0.525 0.4 0.234 0.4 0.52 0.4c0.736 0 2.673 0.941 2.677 1.3 2e-3 0.165 0.352 0.3 0.779 0.3s0.888 0.18 1.024 0.4 0.563 0.4 0.948 0.4c0.386 0 1.447 0.36 2.358 0.8 0.91 0.44 1.934 0.8 2.275 0.8 0.34 0 0.619 0.18 0.619 0.4s0.349 0.4 0.776 0.4 0.888 0.18 1.024 0.4 0.676 0.4 1.2 0.4 1.064 0.18 1.2 0.4 0.777 0.4 1.424 0.4 1.176 0.157 1.176 0.35c0 0.192 0.585 0.485 1.3 0.651s1.57 0.387 1.9 0.493c0.33 0.105 1.365 0.28 2.3 0.389s1.7 0.359 1.7 0.557 0.45 0.36 1 0.36 1 0.18 1 0.4 0.529 0.4 1.176 0.4 1.288 0.18 1.424 0.4 0.856 0.4 1.6 0.4 1.464 0.18 1.6 0.4 0.967 0.4 1.847 0.4c0.965 0 1.502 0.159 1.353 0.4-0.152 0.247 0.529 0.4 1.776 0.4 1.113 0 2.024 0.18 2.024 0.4s0.81 0.4 1.8 0.4 1.8 0.18 1.8 0.4 1.001 0.4 2.224 0.4c1.38 0 2.129 0.152 1.976 0.4-0.154 0.25 0.663 0.4 2.176 0.4 1.333 0 2.424 0.166 2.424 0.368 0 0.203 1.305 0.463 2.9 0.579 1.595 0.115 5.15 0.412 7.9 0.659 6.944 0.624 44.196 0.358 44.875-0.321 0.286-0.286 1.613-0.485 3.229-0.485 1.727 0 2.652-0.148 2.496-0.4-0.155-0.251 0.721-0.4 2.353-0.4 1.43 0 2.711-0.18 2.847-0.4s0.946-0.4 1.8-0.4 1.664-0.18 1.8-0.4 1.036-0.4 2-0.4 1.864-0.18 2-0.4 1.047-0.4 2.024-0.4 1.776-0.18 1.776-0.4 0.731-0.4 1.624-0.4 1.524-0.161 1.402-0.358 0.452-0.46 1.276-0.585c3.579-0.541 4.498-0.766 4.498-1.101 0-0.196 0.529-0.356 1.176-0.356s1.273-0.156 1.391-0.347 1.112-0.466 2.208-0.612c1.095-0.145 2.1-0.439 2.232-0.653 0.132-0.213 0.669-0.388 1.193-0.388s1.045-0.149 1.158-0.332c0.112-0.182 1.211-0.573 2.442-0.868s2.33-0.686 2.442-0.868c0.113-0.183 0.555-0.332 0.982-0.332s0.776-0.18 0.776-0.4 0.355-0.4 0.788-0.4 1.429-0.36 2.212-0.8 1.768-0.8 2.189-0.8c0.42 0 0.875-0.18 1.011-0.4s0.597-0.4 1.024-0.4 0.777-0.135 0.779-0.3c4e-3 -0.359 1.941-1.3 2.677-1.3 0.286 0 0.52-0.18 0.52-0.4s0.362-0.4 0.805-0.4c0.761 0 2.357-0.71 2.795-1.244 0.11-0.134 0.875-0.485 1.7-0.78s1.5-0.647 1.5-0.782c0-0.134 0.63-0.492 1.4-0.794s1.4-0.696 1.4-0.875 0.326-0.325 0.725-0.325c0.398 0 1.111-0.36 1.583-0.8s1.136-0.8 1.475-0.8 0.617-0.18 0.617-0.4 0.291-0.4 0.646-0.4c0.716 0 4.677-2.026 4.887-2.5 0.074-0.165 0.355-0.3 0.625-0.3s0.84-0.315 1.267-0.7c0.426-0.385 1.315-0.969 1.975-1.297 0.66-0.329 1.491-0.914 1.847-1.3 0.356-0.387 0.901-0.703 1.212-0.703 0.31 0 0.824-0.36 1.141-0.8s0.857-0.8 1.2-0.8 0.883-0.36 1.2-0.8 0.809-0.8 1.092-0.8 1.08-0.54 1.771-1.2 1.459-1.2 1.708-1.2 0.712-0.36 1.029-0.8 0.715-0.8 0.884-0.8c0.294 0 1.42-0.845 2.532-1.9 0.29-0.275 0.71-0.5 0.933-0.5s0.686-0.4 1.028-0.889c0.343-0.489 0.623-0.751 0.623-0.582s0.458-0.151 1.018-0.711 1.145-1.021 1.3-1.024c1.05-0.023 1.331-0.728 0.622-1.564-2.761-3.258-6.342-5.24-37.34-20.67-32.996-16.424-38.212-19.067-39.86-20.201-2.179-1.499-6.14-5.518-6.14-6.23 0-0.291-0.161-0.529-0.358-0.529-0.377 0-2.842-4.84-2.842-5.58 0-0.237-0.161-0.743-0.357-1.125-0.945-1.84-1.243-6.305-1.243-18.646v-13.103l1.7-2.114c3.268-4.063 3.554-4.44 4.211-5.532 0.364-0.605 0.803-1.1 0.975-1.1 0.173 0 0.314-0.174 0.314-0.387s1.046-1.968 2.324-3.9c5.117-7.736 9.636-16.544 13.703-26.713 0.423-1.057 2.773-7.868 2.773-8.036 0-0.072 1.286-0.777 2.857-1.565 4.966-2.493 10.343-8.383 10.343-11.331 0-0.389 0.225-0.933 0.5-1.208 0.761-0.761 0.718-35.304-0.047-37.26-1.374-3.514-2.66-5.773-4.278-7.515l-1.752-1.885-0.019-24.6c-0.015-19.885-0.132-25.213-0.608-27.8-6.035-32.791-34.645-48.567-82.996-45.767" fill="#e3ebeb"/>
<path d="m178.3 0.275c-1.925 0.086-3.5 0.329-3.5 0.541 0 0.211-1.249 0.384-2.776 0.384s-2.888 0.18-3.024 0.4-1.216 0.4-2.4 0.4-2.264 0.18-2.4 0.4-1.137 0.4-2.224 0.4-1.976 0.18-1.976 0.4-0.799 0.4-1.776 0.4-1.888 0.18-2.024 0.4-0.957 0.4-1.824 0.4-1.576 0.18-1.576 0.4-0.72 0.4-1.6 0.4-1.6 0.18-1.6 0.4-0.72 0.4-1.6 0.4-1.6 0.18-1.6 0.4-0.54 0.4-1.2 0.4-1.2 0.18-1.2 0.4-0.63 0.4-1.4 0.4-1.4 0.16-1.4 0.356-0.585 0.446-1.3 0.556c-0.715 0.109-1.75 0.327-2.3 0.484s-1.497 0.377-2.105 0.491c-0.608 0.113-1.203 0.364-1.324 0.559-0.12 0.195-0.57 0.354-1 0.354s-1.094 0.159-1.476 0.353c-0.382 0.195-1.235 0.576-1.895 0.847s-1.513 0.652-1.895 0.847c-0.382 0.194-1.057 0.353-1.5 0.353s-0.805 0.18-0.805 0.4-0.36 0.4-0.8 0.4-0.8 0.18-0.8 0.4-0.439 0.4-0.976 0.4-1.088 0.18-1.224 0.4-0.597 0.4-1.024 0.4-0.776 0.18-0.776 0.4-0.36 0.4-0.8 0.4-0.8 0.18-0.8 0.4-0.272 0.4-0.605 0.4-0.918 0.162-1.3 0.359c-0.382 0.198-2.315 1.141-4.295 2.096-1.98 0.956-3.66 1.874-3.733 2.041-0.074 0.167-0.479 0.304-0.9 0.304-0.422 0-0.767 0.18-0.767 0.4s-0.36 0.4-0.8 0.4-0.8 0.18-0.8 0.4-0.236 0.4-0.525 0.4c-0.288 0-0.911 0.36-1.383 0.8s-1.041 0.8-1.265 0.8c-0.694 0-4.027 1.741-4.027 2.103 0 0.189-0.18 0.233-0.4 0.097s-0.4-0.057-0.4 0.176-0.187 0.424-0.416 0.424c-0.474 0-2.915 1.645-3.117 2.1-0.074 0.165-0.439 0.3-0.812 0.3s-0.938 0.36-1.255 0.8-0.857 0.8-1.2 0.8-0.883 0.36-1.2 0.8-0.857 0.8-1.2 0.8-0.883 0.36-1.2 0.8-0.857 0.8-1.2 0.8-0.883 0.36-1.2 0.8-0.78 0.8-1.029 0.8-1.017 0.54-1.708 1.2-1.437 1.2-1.659 1.2-0.404 0.18-0.404 0.4-0.23 0.4-0.512 0.4c-0.281 0-0.771 0.36-1.088 0.8s-0.767 0.8-1 0.8-0.676 0.35-0.985 0.779c-0.308 0.428-0.708 0.687-0.888 0.576s-0.327-0.014-0.327 0.216c0 0.231-0.675 0.856-1.5 1.391s-2.288 1.707-3.251 2.605c-0.962 0.898-1.906 1.633-2.098 1.633-0.191 0-2.321 1.98-4.733 4.4-2.413 2.42-4.297 4.4-4.188 4.4s-0.213 0.426-0.716 0.946c-0.503 0.521-0.972 0.898-1.043 0.838-0.23-0.194-9.271 9.036-9.271 9.464 0 0.228-0.713 1.121-1.584 1.983-0.872 0.863-1.495 1.569-1.385 1.569 0.222 0-0.371 0.774-1.713 2.238-0.485 0.529-0.772 0.962-0.639 0.962 0.134 0-0.144 0.336-0.618 0.747-0.473 0.411-0.861 0.879-0.861 1.039 0 0.161-0.54 0.797-1.2 1.414s-1.2 1.32-1.2 1.564-0.54 1.008-1.2 1.699-1.2 1.459-1.2 1.708-0.36 0.712-0.8 1.029-0.8 0.857-0.8 1.2-0.36 0.883-0.8 1.2-0.8 0.857-0.8 1.2-0.36 0.883-0.8 1.2-0.8 0.857-0.8 1.2-0.36 0.883-0.8 1.2-0.8 0.882-0.8 1.255-0.135 0.738-0.3 0.812c-0.438 0.194-2.1 2.635-2.1 3.083 0 0.211-0.157 0.443-0.349 0.517-0.408 0.155-2.451 4.104-2.451 4.736 0 0.237-0.36 0.817-0.8 1.289s-0.8 1.095-0.8 1.383c0 0.289-0.18 0.525-0.4 0.525s-0.4 0.36-0.4 0.8-0.18 0.8-0.4 0.8-0.4 0.36-0.4 0.8-0.135 0.801-0.3 0.801c-0.165 1e-3 -0.75 0.991-1.3 2.199s-1.135 2.198-1.3 2.199c-0.165 0-0.3 0.273-0.3 0.606s-0.208 1.008-0.462 1.5c-0.971 1.877-1.138 2.302-1.138 2.89 0 0.333-0.18 0.605-0.4 0.605s-0.4 0.36-0.4 0.8-0.18 0.8-0.4 0.8-0.4 0.349-0.4 0.776-0.18 0.888-0.4 1.024-0.4 0.687-0.4 1.224-0.18 0.976-0.4 0.976-0.4 0.36-0.4 0.8-0.18 0.8-0.4 0.8-0.4 0.439-0.4 0.976-0.18 1.088-0.4 1.224-0.4 0.515-0.4 0.843-0.36 1.341-0.8 2.251c-0.44 0.911-0.8 1.946-0.8 2.301s-0.216 0.861-0.48 1.125-0.358 0.48-0.21 0.48c0.149 0 0.079 0.495-0.155 1.1-0.54 1.394-0.793 2.366-1.043 4-0.11 0.715-0.36 1.3-0.556 1.3s-0.356 0.63-0.356 1.4-0.18 1.4-0.4 1.4-0.4 0.529-0.4 1.176-0.18 1.288-0.4 1.424-0.4 0.867-0.4 1.624-0.18 1.376-0.4 1.376-0.4 0.72-0.4 1.6-0.18 1.6-0.4 1.6-0.4 0.709-0.4 1.576-0.18 1.688-0.4 1.824-0.4 1.047-0.4 2.024-0.18 1.776-0.4 1.776-0.4 0.889-0.4 1.976-0.18 2.088-0.4 2.224-0.4 1.216-0.4 2.4-0.18 2.264-0.4 2.4-0.4 1.482-0.4 2.99c0 1.839-0.165 2.798-0.5 2.91-0.732 0.244-0.732 49.956 0 50.2 0.335 0.112 0.5 1.071 0.5 2.91 0 1.508 0.18 2.854 0.4 2.99s0.4 1.216 0.4 2.4 0.18 2.264 0.4 2.4 0.4 1.137 0.4 2.224 0.18 1.976 0.4 1.976 0.4 0.709 0.4 1.576 0.18 1.688 0.4 1.824 0.4 1.047 0.4 2.024 0.18 1.776 0.4 1.776 0.4 0.72 0.4 1.6 0.18 1.6 0.4 1.6 0.4 0.619 0.4 1.376 0.18 1.488 0.4 1.624 0.4 0.777 0.4 1.424 0.18 1.176 0.4 1.176 0.4 0.63 0.4 1.4 0.18 1.4 0.4 1.4 0.4 0.51 0.4 1.133c0 0.624 0.133 1.266 0.295 1.429 0.162 0.162 0.297 0.507 0.3 0.766 7e-3 0.658 2.31 7.627 2.601 7.872 0.13 0.11 0.486 1.01 0.79 2s0.702 1.971 0.884 2.18c0.181 0.209 0.33 0.704 0.33 1.1s0.18 0.72 0.4 0.72 0.4 0.349 0.4 0.776 0.18 0.888 0.4 1.024 0.4 0.687 0.4 1.224 0.18 0.976 0.4 0.976 0.4 0.36 0.4 0.8 0.18 0.8 0.4 0.8 0.4 0.36 0.4 0.8 0.18 0.8 0.4 0.8 0.4 0.349 0.4 0.776 0.18 0.888 0.4 1.024 0.4 0.597 0.4 1.024 0.18 0.776 0.4 0.776 0.4 0.36 0.4 0.8 0.18 0.8 0.4 0.8 0.4 0.36 0.4 0.8 0.18 0.8 0.4 0.8 0.4 0.345 0.4 0.767c0 0.421 0.135 0.826 0.3 0.9 0.376 0.167 1.675 2.297 1.971 3.233 0.122 0.385 0.381 0.7 0.576 0.7 0.194 0 0.353 0.36 0.353 0.8s0.158 0.8 0.35 0.8c0.193 0 0.454 0.518 0.58 1.152 0.127 0.633 0.522 1.443 0.879 1.8 0.356 0.356 0.5 0.651 0.32 0.654-0.181 3e-3 -0.147 0.138 0.076 0.3s0.837 1.149 1.363 2.194c0.527 1.045 1.066 1.9 1.197 1.9 0.132 0 0.464 0.506 0.738 1.125 0.273 0.619 0.857 1.511 1.297 1.983s0.8 1.096 0.8 1.387 0.36 0.788 0.8 1.105 0.8 0.857 0.8 1.2 0.36 0.883 0.8 1.2 0.8 0.78 0.8 1.029 0.54 1.017 1.2 1.708 1.2 1.455 1.2 1.699 0.54 0.947 1.2 1.564 1.2 1.343 1.2 1.614c0 0.27 0.317 0.783 0.704 1.139 0.388 0.356 1.238 1.367 1.891 2.247 0.652 0.88 1.595 2.013 2.095 2.518 0.501 0.505 0.91 1.076 0.91 1.269 0 0.192 1.17 1.555 2.6 3.028s2.6 2.844 2.6 3.047c0 0.472 7.113 7.538 7.589 7.538 0.196 0 0.471 0.36 0.611 0.8s0.542 0.8 0.894 0.8c0.351 0 0.533 0.107 0.402 0.237-0.292 0.292 4.188 4.809 6.104 6.154 0.77 0.541 2.057 1.66 2.86 2.487l1.46 1.504 1.54-1.431c0.847-0.787 2.873-2.337 4.502-3.445 2.737-1.861 3.845-2.507 8.838-5.152 0.99-0.525 1.89-1.052 2-1.173 0.11-0.12 1.19-0.709 2.4-1.309 1.21-0.599 3.01-1.564 4-2.143s2.721-1.543 3.846-2.142c1.125-0.598 3.195-1.718 4.6-2.489 2.403-1.318 4.482-2.452 9.454-5.156 1.155-0.628 3.045-1.658 4.2-2.288 1.155-0.631 2.91-1.576 3.9-2.1 0.99-0.525 1.89-1.044 2-1.154s0.92-0.572 1.8-1.027c1.462-0.755 6.245-3.34 9.2-4.972 0.66-0.364 3.18-1.728 5.6-3.032 7.316-3.939 12.354-9.82 13.919-16.246 0.236-0.971 0.483-7.949 0.564-15.995l0.146-14.272-4.215-6.188c-2.318-3.404-4.214-6.386-4.214-6.628s-0.159-0.44-0.353-0.44c-0.195 0-0.457-0.315-0.583-0.7s-0.772-1.6-1.437-2.7c-3.938-6.518-9.204-18.847-11.419-26.733-0.566-2.017-1.235-4.387-1.486-5.267-0.318-1.113-0.951-1.968-2.08-2.81-3.752-2.797-6.494-7.762-7.414-13.423-0.619-3.811-0.522-28.606 0.126-32.226 0.493-2.75 2.229-6.968 3.322-8.07 0.288-0.29 0.524-0.658 0.524-0.816 0-0.159 0.639-0.966 1.421-1.795l1.421-1.506-0.068-25.277c-0.047-17.822 0.064-25.609 0.379-26.403 0.246-0.619 0.447-1.597 0.447-2.172s0.176-1.598 0.391-2.274c1.652-5.187 2.344-6.955 4.24-10.828 4.168-8.515 11.404-16.119 20.035-21.052 2.259-1.292 7.707-3.948 8.096-3.948 0.185 0 1.124-0.347 2.087-0.771s3.191-1.161 4.951-1.636c1.76-0.476 3.83-1.037 4.6-1.247 1.348-0.369 3.491-0.756 8.6-1.555 15.31-2.392 34.731-1.651 49.4 1.886 20.82 5.02 35.705 17.526 41.376 34.764 1.759 5.348 1.824 5.585 1.824 6.661 0 0.575 0.204 1.553 0.454 2.172 0.324 0.805 0.431 8.326 0.375 26.416l-0.079 25.291 1.525 1.642c0.839 0.904 1.795 2.123 2.125 2.71s0.69 1.157 0.801 1.267c0.246 0.245 1.027 1.915 1.404 3 1.924 5.537 2.068 34.61 0.196 39.6-2.107 5.619-5.6 9.607-10.461 11.946-2.831 1.361-2.979 1.502-3.515 3.338-0.308 1.054-0.688 2.186-0.846 2.516-0.415 0.871-1.012 2.35-1.775 4.4-1.592 4.278-5.673 12.978-8.348 17.8-2.327 4.193-5.935 9.995-6.302 10.133-0.195 0.074-0.354 0.355-0.354 0.625s-0.32 0.84-0.711 1.267c-0.391 0.426-1.147 1.405-1.681 2.175-0.533 0.77-1.077 1.49-1.208 1.6s-0.675 0.83-1.208 1.6c-0.534 0.77-1.297 1.756-1.697 2.192-0.399 0.436-0.826 1.191-0.948 1.678-0.477 1.898 0.033 30.07 0.553 30.59 0.275 0.275 0.5 0.826 0.5 1.225s0.208 1.128 0.462 1.62c0.255 0.492 0.615 1.21 0.8 1.595 0.563 1.167 1.325 2.488 1.557 2.7 0.121 0.11 0.654 0.83 1.185 1.6 1.006 1.46 2.179 2.645 4.45 4.498 0.74 0.604 14.756 7.799 31.146 15.989 16.39 8.189 29.86 15.03 29.933 15.202 0.074 0.171 0.37 0.311 0.658 0.311 2.097 0 16.542 8.968 16.591 10.3 0.029 0.796 0.381 0.604 2.018-1.1 0.846-0.88 1.722-1.6 1.948-1.6s2.355-1.97 4.731-4.379c5.237-5.307 4.435-4.505 9.742-9.742 2.409-2.376 4.379-4.505 4.379-4.731s0.681-1.072 1.513-1.879c0.832-0.808 1.955-2.099 2.496-2.869 0.54-0.77 1.479-1.922 2.087-2.559 0.607-0.638 1.104-1.29 1.104-1.45s0.63-0.978 1.4-1.819 1.4-1.723 1.4-1.962c0-0.238 0.36-0.693 0.8-1.01s0.8-0.78 0.8-1.029 0.54-1.017 1.2-1.708 1.2-1.488 1.2-1.771 0.36-0.775 0.8-1.092 0.8-0.857 0.8-1.2 0.36-0.883 0.8-1.2 0.8-0.831 0.8-1.141c0-0.311 0.316-0.856 0.703-1.212 0.386-0.356 0.971-1.187 1.3-1.847 0.328-0.66 0.912-1.549 1.297-1.975 0.385-0.427 0.7-1.012 0.7-1.3 0-0.289 0.18-0.525 0.4-0.525s0.4-0.36 0.4-0.8 0.147-0.8 0.326-0.8c0.398 0 1.674-2.601 1.674-3.414 0-0.322 0.18-0.586 0.4-0.586s0.4-0.278 0.4-0.617 0.36-1.003 0.8-1.475 0.8-1.095 0.8-1.383c0-0.289 0.18-0.525 0.4-0.525s0.4-0.36 0.4-0.8 0.18-0.8 0.4-0.8 0.4-0.345 0.4-0.767c0-0.421 0.135-0.826 0.3-0.9 0.165-0.073 0.725-1.033 1.244-2.133s1.104-2.313 1.3-2.695 0.356-0.967 0.356-1.3 0.18-0.605 0.4-0.605 0.4-0.36 0.4-0.8 0.18-0.8 0.4-0.8 0.4-0.36 0.4-0.8 0.147-0.8 0.328-0.8c0.18 0 0.572-0.9 0.872-2s0.692-2 0.872-2c0.181 0 0.328-0.272 0.328-0.605s0.18-0.963 0.4-1.4 0.58-1.153 0.8-1.59 0.4-1.142 0.4-1.566c0-0.425 0.135-0.832 0.3-0.906 0.426-0.189 3.324-9.148 3.311-10.233-6e-3 -0.495 0.169-0.9 0.389-0.9s0.4-0.63 0.4-1.4 0.18-1.4 0.4-1.4 0.4-0.529 0.4-1.176 0.18-1.288 0.4-1.424 0.4-0.867 0.4-1.624 0.18-1.376 0.4-1.376 0.4-0.72 0.4-1.6 0.18-1.6 0.4-1.6 0.4-0.9 0.4-2 0.18-2 0.4-2 0.4-0.709 0.4-1.576 0.18-1.688 0.4-1.824 0.4-1.137 0.4-2.224 0.18-1.976 0.4-1.976c0.222 0 0.4-1.067 0.4-2.4s0.178-2.4 0.4-2.4c0.228 0 0.4-1.189 0.4-2.767 0-1.857 0.164-2.821 0.5-2.933 0.393-0.131 0.5-5.509 0.5-25.1s-0.107-24.969-0.5-25.1c-0.336-0.112-0.5-1.076-0.5-2.933 0-1.578-0.172-2.767-0.4-2.767-0.222 0-0.4-1.067-0.4-2.4s-0.178-2.4-0.4-2.4c-0.22 0-0.4-0.99-0.4-2.2s-0.18-2.2-0.4-2.2-0.4-0.709-0.4-1.576-0.18-1.688-0.4-1.824-0.4-1.047-0.4-2.024-0.18-1.776-0.4-1.776-0.4-0.72-0.4-1.6-0.18-1.6-0.4-1.6-0.4-0.619-0.4-1.376-0.18-1.488-0.4-1.624-0.4-0.777-0.4-1.424-0.18-1.176-0.4-1.176-0.4-0.63-0.4-1.4-0.18-1.4-0.4-1.4-0.4-0.429-0.4-0.954c0-0.891-0.885-4.228-1.603-6.046-0.174-0.44-0.533-1.43-0.797-2.2-0.582-1.693-1.171-3.16-1.647-4.095-0.194-0.382-0.353-1.057-0.353-1.5s-0.18-0.805-0.4-0.805-0.4-0.36-0.4-0.8-0.18-0.8-0.4-0.8-0.4-0.439-0.4-0.976-0.18-1.088-0.4-1.224-0.4-0.597-0.4-1.024-0.18-0.776-0.4-0.776-0.4-0.36-0.4-0.8-0.18-0.8-0.4-0.8-0.4-0.272-0.4-0.605-0.16-0.918-0.356-1.3-0.781-1.595-1.3-2.695-1.079-2.06-1.244-2.133c-0.165-0.074-0.3-0.479-0.3-0.9 0-0.422-0.18-0.767-0.4-0.767s-0.4-0.36-0.4-0.8-0.18-0.8-0.4-0.8-0.4-0.36-0.4-0.8-0.18-0.8-0.4-0.8-0.4-0.278-0.4-0.617-0.36-1.003-0.8-1.475-0.8-1.095-0.8-1.383c0-0.289-0.18-0.525-0.4-0.525s-0.4-0.291-0.4-0.646c0-0.572-1.87-4.436-2.398-4.954-0.112-0.11-0.457-0.692-0.767-1.293-0.309-0.602-0.894-1.449-1.299-1.884-0.405-0.434-0.736-1.027-0.736-1.318s-0.36-0.788-0.8-1.105-0.8-0.857-0.8-1.2-0.36-0.883-0.8-1.2-0.8-0.857-0.8-1.2-0.36-0.883-0.8-1.2-0.8-0.857-0.8-1.2-0.36-0.883-0.8-1.2-0.8-0.78-0.8-1.029-0.54-1.017-1.2-1.708-1.2-1.411-1.2-1.6-0.54-0.909-1.2-1.6-1.2-1.392-1.2-1.56c0-0.167-0.72-1.091-1.6-2.054-0.88-0.962-1.6-1.866-1.6-2.009 0-0.142-0.99-1.322-2.2-2.622s-2.2-2.518-2.2-2.707c0-0.188-1.89-2.214-4.2-4.502-2.31-2.287-4.2-4.044-4.2-3.903s-0.315-0.162-0.7-0.673c-1.24-1.648-10.124-10.433-10.55-10.433-0.227 0-1.119-0.735-1.981-1.633-0.863-0.898-1.569-1.52-1.569-1.384 0 0.287-0.297 0.054-4.184-3.283-0.32-0.275-0.681-0.5-0.803-0.5-0.121 0-0.785-0.54-1.476-1.2s-1.411-1.2-1.6-1.2-0.909-0.54-1.6-1.2-1.459-1.2-1.708-1.2-0.712-0.36-1.029-0.8-0.857-0.8-1.2-0.8-0.883-0.36-1.2-0.8-0.857-0.8-1.2-0.8-0.883-0.36-1.2-0.8-0.857-0.8-1.2-0.8-0.883-0.36-1.2-0.8-0.729-0.8-0.916-0.8-1.125-0.54-2.084-1.2-1.922-1.2-2.139-1.2-0.454-0.135-0.528-0.3c-0.18-0.405-4.122-2.5-4.704-2.5-0.254 0-0.849-0.36-1.321-0.8s-1.095-0.8-1.383-0.8c-0.289 0-0.525-0.18-0.525-0.4s-0.36-0.4-0.8-0.4-0.8-0.18-0.8-0.4-0.36-0.4-0.8-0.4-0.801-0.135-0.801-0.3c-1e-3 -0.165-0.991-0.75-2.199-1.3s-2.198-1.135-2.199-1.3c0-0.165-0.35-0.3-0.777-0.3s-0.888-0.18-1.024-0.4-0.597-0.4-1.024-0.4-0.776-0.18-0.776-0.4-0.45-0.4-1-0.4-1-0.18-1-0.4-0.36-0.4-0.8-0.4-0.8-0.18-0.8-0.4-0.349-0.4-0.776-0.4-0.888-0.18-1.024-0.4-0.687-0.4-1.224-0.4-0.976-0.18-0.976-0.4-0.36-0.4-0.8-0.4-0.8-0.18-0.8-0.4-0.362-0.4-0.805-0.4-1.118-0.159-1.5-0.353c-0.382-0.195-1.235-0.576-1.895-0.847s-1.513-0.652-1.895-0.847c-0.382-0.194-1.021-0.353-1.42-0.353s-0.941-0.216-1.205-0.48-0.48-0.358-0.48-0.21c0 0.149-0.495 0.079-1.1-0.155-1.394-0.54-2.366-0.793-4-1.043-0.715-0.11-1.3-0.36-1.3-0.556s-0.63-0.356-1.4-0.356-1.4-0.18-1.4-0.4-0.54-0.4-1.2-0.4-1.2-0.18-1.2-0.4-0.72-0.4-1.6-0.4-1.6-0.18-1.6-0.4-0.72-0.4-1.6-0.4-1.6-0.18-1.6-0.4-0.709-0.4-1.576-0.4-1.688-0.18-1.824-0.4-1.047-0.4-2.024-0.4-1.776-0.18-1.776-0.4-0.889-0.4-1.976-0.4-2.088-0.18-2.224-0.4-1.317-0.4-2.624-0.4c-1.317 0-2.376-0.178-2.376-0.4 0-0.228-1.189-0.4-2.767-0.4-1.835 0-2.822-0.166-2.93-0.492-0.162-0.486-37.812-0.834-46.803-0.433" fill="#546383"/>
<path d="m192.9 60.676c0.385 0.1 1.015 0.1 1.4 0 0.385-0.101 0.07-0.183-0.7-0.183s-1.085 0.082-0.7 0.183m12.8 0c0.385 0.1 1.015 0.1 1.4 0 0.385-0.101 0.07-0.183-0.7-0.183s-1.085 0.082-0.7 0.183" fill="#929aac"/>
<path d="m196.5 60.298c1.925 0.073 5.075 0.073 7 0s0.35-0.133-3.5-0.133-5.425 0.06-3.5 0.133m24.9 1.702c0.44 0.189 1.07 0.344 1.4 0.344 0.378 0 0.304-0.127-0.2-0.344-0.44-0.189-1.07-0.344-1.4-0.344-0.378 0-0.304 0.127 0.2 0.344m-48.4 0.8c-0.504 0.217-0.578 0.344-0.2 0.344 0.33 0 0.96-0.155 1.4-0.344 0.504-0.217 0.578-0.344 0.2-0.344-0.33 0-0.96 0.155-1.4 0.344m52.8 0c0.44 0.189 1.07 0.344 1.4 0.344 0.378 0 0.304-0.127-0.2-0.344-0.44-0.189-1.07-0.344-1.4-0.344-0.378 0-0.304 0.127 0.2 0.344m-67.4 4.6c-1.306 0.747-0.849 0.755 0.854 0.016 0.74-0.322 1.076-0.585 0.746-0.586s-1.05 0.256-1.6 0.57m-20.225 14.7-1.175 1.3 1.3-1.175c0.715-0.646 1.3-1.231 1.3-1.3 0-0.309-0.33-0.037-1.425 1.175m-3.396 4.331c-0.908 1.337-1.59 2.491-1.515 2.566 0.075 0.074 0.902-1.02 1.839-2.431 0.936-1.411 1.618-2.566 1.514-2.566-0.103 0-0.93 1.094-1.838 2.431m-8.179 21.169c-0.152 0.691-0.193 1.341-0.091 1.442 0.102 0.102 0.3-0.389 0.441-1.092 0.333-1.667 0.01-1.99-0.35-0.35m147.14 8.8c0 1.87 0.069 2.635 0.153 1.7s0.084-2.465 0-3.4-0.153-0.17-0.153 1.7m-147.61-0.2c2e-3 1.54 0.074 2.121 0.161 1.291s0.085-2.09-3e-3 -2.8c-0.089-0.71-0.16-0.031-0.158 1.509m-5.882 52.015c-0.137 0.358-0.234 0.951-0.215 1.318s0.193 0.136 0.387-0.513c0.377-1.262 0.244-1.887-0.172-0.805m160.33 19.185c0 8.36 0.053 11.837 0.118 7.726 0.065-4.11 0.065-10.95 1e-3 -15.2-0.065-4.249-0.118-0.886-0.119 7.474m-161.2 0c-1e-3 7.92 0.053 11.217 0.118 7.326 0.066-3.891 0.066-10.371 1e-3 -14.4-0.066-4.029-0.119-0.846-0.119 7.074m5.619 27.348c0.66 0.729 1.74 1.698 2.4 2.153 1.418 0.979 1.098 0.633-1.6-1.727-1.478-1.293-1.687-1.404-0.8-0.426m149.18 0.552-1.581 1.7 1.7-1.581c1.581-1.471 1.884-1.819 1.581-1.819-0.065 0-0.83 0.765-1.7 1.7m-3.281 2.346c-1.363 0.873-1.805 1.46-0.6 0.797 0.918-0.504 2.356-1.616 2.1-1.624-0.11-3e-3 -0.785 0.369-1.5 0.827m-21.886 38.189c-0.373 0.569-0.609 1.103-0.525 1.187 0.084 0.085 0.469-0.381 0.855-1.034 0.862-1.46 0.604-1.579-0.33-0.153m-97.053 10.819c0.79 1.196 0.833 1.876 0.939 14.6l0.111 13.346 0.093-13.4 0.092-13.4-2.062-2.4 0.827 1.254m88.662 0.635c-0.538 0.768-0.611 2.711-0.533 14.3l0.089 13.411 0.211-13.639c0.165-10.732 0.327-13.78 0.759-14.3 0.302-0.364 0.447-0.661 0.323-0.661-0.125 0-0.507 0.4-0.849 0.889m-92.224 38.811c-0.589 0.804-0.686 1.084-0.254 0.733 0.656-0.533 1.648-2.033 1.344-2.033-0.076 0-0.567 0.585-1.09 1.3m-2.618 3.2-1.581 1.7 1.7-1.581c1.581-1.471 1.884-1.819 1.581-1.819-0.065 0-0.83 0.765-1.7 1.7m175.42 39.221c0 0.091 1.035 0.83 2.3 1.642s1.808 1.058 1.206 0.547c-1.188-1.01-3.506-2.457-3.506-2.189" fill="#8189a1"/>
<path d="m198.3 60.693c0.935 0.084 2.465 0.084 3.4 0s0.17-0.153-1.7-0.153-2.635 0.069-1.7 0.153m-9.587 0.402c1.163 0.081 2.963 0.081 4-2e-3 1.038-0.082 0.087-0.148-2.113-0.147s-3.049 0.068-1.887 0.149m18.8 0c1.163 0.081 2.963 0.081 4-2e-3 1.038-0.082 0.087-0.148-2.113-0.147s-3.049 0.068-1.887 0.149m-26.413 0.787c0.495 0.096 1.305 0.096 1.8 0 0.495-0.095 0.09-0.173-0.9-0.173s-1.395 0.078-0.9 0.173m36 0c0.495 0.096 1.305 0.096 1.8 0 0.495-0.095 0.09-0.173-0.9-0.173s-1.395 0.078-0.9 0.173m-70.7 12.967c-1.394 1.222-1.395 1.223-0.112 0.37 0.708-0.471 1.394-1.028 1.524-1.238 0.385-0.624 0.065-0.427-1.412 0.868m110.38 2.851c0.981 1.045 1.836 1.9 1.9 1.9 0.301 0-0.017-0.359-1.783-2.017l-1.9-1.783 1.783 1.9m-115.59 1.8-2.99 3.1 3.189-3c1.753-1.65 3.268-3.045 3.366-3.1s9e-3 -0.1-0.198-0.1c-0.208 0-1.723 1.395-3.367 3.1m119.41 2.1c0.859 0.88 1.652 1.6 1.762 1.6s-0.503-0.72-1.362-1.6-1.652-1.6-1.762-1.6 0.503 0.72 1.362 1.6m3.016 3.763c0.752 1.046 1.54 2.01 1.751 2.14s-0.232-0.619-0.983-1.666c-0.752-1.046-1.54-2.01-1.751-2.14s0.232 0.619 0.983 1.666m-127.69 0.137c-0.705 0.821-1.233 1.7-1.022 1.7 0.082 0 0.548-0.54 1.036-1.2 0.964-1.304 0.955-1.628-0.014-0.5m-3.323 5.3c-0.341 0.66-0.531 1.2-0.421 1.2s0.48-0.54 0.821-1.2 0.531-1.2 0.421-1.2-0.48 0.54-0.821 1.2m-4.554 11.667c-0.025 0.367-0.15 0.997-0.276 1.4-0.218 0.695-0.207 0.696 0.227 0.02 0.251-0.391 0.376-1.021 0.276-1.4-0.162-0.619-0.185-0.621-0.227-0.02m144.45 3.533c0 0.77 0.082 1.085 0.183 0.7 0.1-0.385 0.1-1.015 0-1.4-0.101-0.385-0.183-0.07-0.183 0.7m-145.2 0.4c0 0.77 0.082 1.085 0.183 0.7 0.1-0.385 0.1-1.015 0-1.4-0.101-0.385-0.183-0.07-0.183 0.7m146 28.425-0.097 24.625 2.6 2.35-1.097-1.219-1.097-1.218-0.106-24.582-0.106-24.581-0.097 24.625m-146.8 0.153-0.097 24.378-2.182 2.444 2.588-2.422-0.212-48.778-0.097 24.378m153.41 49.622c0.06 7.7 0.164 14.72 0.23 15.6 0.067 0.88 0.139-4.61 0.161-12.2 0.023-7.59-0.081-14.61-0.23-15.6-0.148-0.99-0.221 4.5-0.161 12.2m-159.82-12.2c0 0.77 0.082 1.085 0.183 0.7 0.1-0.385 0.1-1.015 0-1.4-0.101-0.385-0.183-0.07-0.183 0.7m-0.314 15.2c0 7.37 0.054 10.385 0.12 6.7s0.066-9.715 0-13.4-0.12-0.67-0.12 6.7m0.322 15c4e-3 0.88 0.086 1.193 0.182 0.695 0.096-0.497 0.092-1.217-8e-3 -1.6-0.1-0.382-0.179 0.025-0.174 0.905m159.59 0.6c0 0.77 0.082 1.085 0.183 0.7 0.1-0.385 0.1-1.015 0-1.4-0.101-0.385-0.183-0.07-0.183 0.7m-3.867 9.5c-0.864 1.105-0.933 1.29-0.263 0.704 0.802-0.7 1.86-2.204 1.551-2.204-0.063 0-0.642 0.675-1.288 1.5m-149.79 2.6c0.092 0.055 0.707 0.55 1.367 1.1l1.2 1-0.97-1.1c-0.533-0.605-1.148-1.1-1.366-1.1-0.219 0-0.322 0.045-0.231 0.1m146.34 1-0.97 1.1 1.2-1c0.66-0.55 1.275-1.045 1.367-1.1 0.091-0.055-0.012-0.1-0.231-0.1-0.218 0-0.833 0.495-1.366 1.1m-128.56 37.6c1.341 2.085 1.785 2.677 1.785 2.38 0-0.384-2.045-3.48-2.299-3.48-0.106 0 0.125 0.495 0.514 1.1m103.78 3.3c-0.47 0.66-0.764 1.2-0.654 1.2s0.584-0.54 1.054-1.2 0.764-1.2 0.654-1.2-0.584 0.54-1.054 1.2m-99.236 3.933c0.216 0.403 0.707 0.988 1.091 1.3 0.432 0.351 0.335 0.071-0.254-0.733-1.05-1.435-1.444-1.702-0.837-0.567m91.68 6.214c-0.325 0.391-0.423 4.477-0.344 14.3l0.111 13.753 0.094-13.82c0.07-10.106 0.224-13.949 0.575-14.3 0.264-0.264 0.376-0.48 0.249-0.48s-0.435 0.246-0.685 0.547m-86.666 12.853c0 6.82 0.054 9.666 0.121 6.325s0.067-8.921 0-12.4c-0.066-3.479-0.121-0.745-0.121 6.075m87.022 18.376c0 0.537 0.147 1.068 0.328 1.179 0.18 0.112 0.249-0.328 0.154-0.976-0.21-1.43-0.482-1.544-0.482-0.203m-99.2 14.624c-0.99 0.658-1.661 1.197-1.491 1.198 0.348 2e-3 3.491-2.024 3.491-2.251 0-0.255-0.158-0.172-2 1.053m-6.5 3.627c-0.825 0.436-1.5 0.881-1.5 0.991 0 0.109 0.72-0.169 1.6-0.618s1.6-0.903 1.6-1.008c0-0.262-3e-3 -0.261-1.7 0.635m183.7 30.552c0 0.11 0.54 0.48 1.2 0.821s1.2 0.531 1.2 0.421-0.54-0.48-1.2-0.821-1.2-0.531-1.2-0.421m-241.88 1.65-1.122 1.029 1.3-0.904c0.715-0.497 1.3-0.961 1.3-1.029 0-0.316-0.442-0.045-1.478 0.904m250.56 4.358c0.396 0.544 0.885 0.994 1.089 1 0.203 7e-3 -0.053-0.437-0.57-0.987-1.199-1.277-1.443-1.282-0.519-0.013" fill="#acacbc"/>
</g>
</svg>
